<svg width="18" height="18" viewBox="0 0 18 18" fill="none" xmlns="http://www.w3.org/2000/svg">
<path d="M9 17.4736C7.84342 17.4736 6.75326 17.2523 5.72949 16.8096C4.71126 16.3669 3.81201 15.7554 3.03174 14.9751C2.25146 14.1948 1.63997 13.2956 1.19727 12.2773C0.754557 11.2536 0.533203 10.1634 0.533203 9.00684C0.533203 7.85026 0.754557 6.76286 1.19727 5.74463C1.63997 4.72087 2.2487 3.81885 3.02344 3.03857C3.80371 2.2583 4.70296 1.64681 5.72119 1.2041C6.74495 0.761393 7.83512 0.540039 8.9917 0.540039C10.1483 0.540039 11.2384 0.761393 12.2622 1.2041C13.286 1.64681 14.188 2.2583 14.9683 3.03857C15.7485 3.81885 16.36 4.72087 16.8027 5.74463C17.2454 6.76286 17.4668 7.85026 17.4668 9.00684C17.4668 10.1634 17.2454 11.2536 16.8027 12.2773C16.36 13.2956 15.7485 14.1948 14.9683 14.9751C14.188 15.7554 13.286 16.3669 12.2622 16.8096C11.244 17.2523 10.1566 17.4736 9 17.4736ZM9 16.0625C9.97949 16.0625 10.8953 15.8799 11.7476 15.5146C12.5998 15.1494 13.3496 14.6458 13.9971 14.0039C14.6445 13.3564 15.1481 12.6066 15.5078 11.7544C15.873 10.9022 16.0557 9.98633 16.0557 9.00684C16.0557 8.02734 15.873 7.11149 15.5078 6.25928C15.1426 5.40706 14.6362 4.65723 13.9888 4.00977C13.3468 3.3623 12.597 2.85872 11.7393 2.49902C10.887 2.13379 9.97119 1.95117 8.9917 1.95117C8.01221 1.95117 7.09635 2.13379 6.24414 2.49902C5.39193 2.85872 4.64486 3.3623 4.00293 4.00977C3.361 4.65723 2.85742 5.40706 2.49219 6.25928C2.13249 7.11149 1.95264 8.02734 1.95264 9.00684C1.95264 9.98633 2.13249 10.9022 2.49219 11.7544C2.85742 12.6066 3.361 13.3564 4.00293 14.0039C4.65039 14.6458 5.40023 15.1494 6.25244 15.5146C7.10465 15.8799 8.02051 16.0625 9 16.0625ZM8.08691 12.9414C7.94857 12.9414 7.82129 12.911 7.70508 12.8501C7.5944 12.7892 7.48649 12.6924 7.38135 12.5596L5.35596 10.0693C5.22868 9.89779 5.16504 9.72624 5.16504 9.55469C5.16504 9.37207 5.22591 9.21712 5.34766 9.08984C5.47493 8.95703 5.62712 8.89062 5.8042 8.89062C5.92041 8.89062 6.02555 8.91553 6.11963 8.96533C6.21924 9.0096 6.31885 9.09814 6.41846 9.23096L8.05371 11.3477L11.4985 5.81934C11.6535 5.57031 11.8472 5.4458 12.0796 5.4458C12.2511 5.4458 12.4061 5.50114 12.5444 5.61182C12.6828 5.72249 12.752 5.86914 12.752 6.05176C12.752 6.14583 12.7298 6.23991 12.6855 6.33398C12.6468 6.42253 12.6025 6.50553 12.5527 6.58301L8.75928 12.5596C8.59326 12.8141 8.36914 12.9414 8.08691 12.9414Z" fill="#4ADE80"/>
</svg>
