<svg width="12" height="13" viewBox="0 0 12 13" fill="none" xmlns="http://www.w3.org/2000/svg">
<path d="M8.9375 2V2.0625H9H11.5C11.616 2.0625 11.7273 2.10859 11.8094 2.19064C11.8914 2.27269 11.9375 2.38397 11.9375 2.5C11.9375 2.61603 11.8914 2.72731 11.8094 2.80936C11.7273 2.89141 11.616 2.9375 11.5 2.9375H11H10.9375V3V12C10.9375 12.2486 10.8387 12.4871 10.6629 12.6629C10.4871 12.8387 10.2486 12.9375 10 12.9375H2C1.75136 12.9375 1.5129 12.8387 1.33709 12.6629C1.16127 12.4871 1.0625 12.2486 1.0625 12V3V2.9375H1H0.5C0.383968 2.9375 0.272688 2.89141 0.190641 2.80936C0.108594 2.72731 0.0625 2.61603 0.0625 2.5C0.0625 2.38397 0.108594 2.27269 0.190641 2.19064C0.272688 2.10859 0.383968 2.0625 0.5 2.0625H3H3.0625V2V1.5C3.0625 1.11875 3.21395 0.753118 3.48353 0.483534C3.75312 0.21395 4.11875 0.0625 4.5 0.0625H7.5C7.88125 0.0625 8.24688 0.213951 8.51647 0.483534C8.78605 0.753118 8.9375 1.11875 8.9375 1.5V2ZM8 2.0625H8.0625V2V1.5C8.0625 1.35082 8.00324 1.20774 7.89775 1.10225C7.79226 0.996763 7.64918 0.9375 7.5 0.9375H4.5C4.35082 0.9375 4.20774 0.996763 4.10225 1.10225C3.99676 1.20774 3.9375 1.35082 3.9375 1.5V2V2.0625H4H8ZM10 12.0625H10.0625V12V3V2.9375H10H2H1.9375V3V12V12.0625H2H10ZM4.9375 5.5V9.5C4.9375 9.61603 4.89141 9.72731 4.80936 9.80936C4.72731 9.89141 4.61603 9.9375 4.5 9.9375C4.38397 9.9375 4.27269 9.89141 4.19064 9.80936C4.10859 9.72731 4.0625 9.61603 4.0625 9.5V5.5C4.0625 5.38397 4.10859 5.27269 4.19064 5.19064C4.27269 5.10859 4.38397 5.0625 4.5 5.0625C4.61603 5.0625 4.72731 5.10859 4.80936 5.19064C4.89141 5.27269 4.9375 5.38397 4.9375 5.5ZM7.9375 5.5V9.5C7.9375 9.61603 7.89141 9.72731 7.80936 9.80936C7.72731 9.89141 7.61603 9.9375 7.5 9.9375C7.38397 9.9375 7.27269 9.89141 7.19064 9.80936C7.10859 9.72731 7.0625 9.61603 7.0625 9.5V5.5C7.0625 5.38397 7.10859 5.27269 7.19064 5.19064C7.27269 5.10859 7.38397 5.0625 7.5 5.0625C7.61603 5.0625 7.72731 5.10859 7.80936 5.19064C7.89141 5.27269 7.9375 5.38397 7.9375 5.5Z" fill="white" stroke="white" stroke-width="0.125"/>
</svg>
