<svg width="61" height="60" viewBox="0 0 61 60" fill="none" xmlns="http://www.w3.org/2000/svg">
<rect x="0.5" width="60" height="60" rx="16" fill="#676E76" fill-opacity="0.08"/>
<path fill-rule="evenodd" clip-rule="evenodd" d="M25.5 17H38.5C39.0304 17 39.5391 17.2107 39.9142 17.5858C40.2893 17.9609 40.5 18.4696 40.5 19V38C40.5 38.2652 40.3946 38.5196 40.2071 38.7071C40.0196 38.8946 39.7652 39 39.5 39C39.2348 39 38.9804 38.8946 38.7929 38.7071C38.6054 38.5196 38.5 38.2652 38.5 38V19H25.5C25.2348 19 24.9804 18.8946 24.7929 18.7071C24.6054 18.5196 24.5 18.2652 24.5 18C24.5 17.7348 24.6054 17.4804 24.7929 17.2929C24.9804 17.1054 25.2348 17 25.5 17ZM22.5 21H34.5C35.0304 21 35.5391 21.2107 35.9142 21.5858C36.2893 21.9609 36.5 22.4696 36.5 23V42C36.4998 42.1835 36.4492 42.3635 36.3536 42.5201C36.2579 42.6768 36.121 42.8041 35.9579 42.8882C35.7947 42.9722 35.6116 43.0097 35.4285 42.9966C35.2454 42.9835 35.0695 42.9202 34.92 42.8137L28.5 38.2288L22.0813 42.8137C21.9317 42.9205 21.7557 42.9841 21.5724 42.9974C21.3892 43.0107 21.2058 42.9733 21.0424 42.8892C20.879 42.8051 20.742 42.6776 20.6463 42.5208C20.5506 42.3639 20.5 42.1837 20.5 42V23C20.5 22.4696 20.7107 21.9609 21.0858 21.5858C21.4609 21.2107 21.9696 21 22.5 21Z" fill="#4F4F4F"/>
</svg>
