<svg width="40" height="40" viewBox="0 0 40 40" fill="none" xmlns="http://www.w3.org/2000/svg">
<rect width="40" height="40" rx="20" fill="#4F4F4F"/>
<path d="M17.0243 11.4735C16.9994 11.3781 16.9937 11.2787 17.0073 11.1811C17.0209 11.0834 17.0536 10.9894 17.1036 10.9045C17.1536 10.8195 17.2198 10.7452 17.2986 10.6858C17.3773 10.6265 17.4669 10.5832 17.5624 10.5585C19.1612 10.1462 20.8386 10.1462 22.4374 10.5585C22.6145 10.6039 22.7689 10.7123 22.8717 10.8635C22.9744 11.0147 23.0184 11.1982 22.9954 11.3796C22.9724 11.5609 22.8839 11.7276 22.7466 11.8483C22.6093 11.969 22.4327 12.0355 22.2499 12.0351C22.1866 12.0348 22.1236 12.0266 22.0624 12.0107C20.7095 11.6618 19.2903 11.6618 17.9374 12.0107C17.7451 12.0603 17.5409 12.0316 17.3698 11.9309C17.1986 11.8302 17.0743 11.6657 17.0243 11.4735ZM13.0427 13.1695C11.8864 14.3469 11.0478 15.7984 10.6052 17.3882C10.5521 17.5799 10.5774 17.7849 10.6754 17.958C10.7734 18.131 10.9362 18.2581 11.1279 18.3112C11.3196 18.3643 11.5245 18.339 11.6976 18.241C11.8707 18.143 11.9977 17.9802 12.0508 17.7885C12.425 16.4428 13.1346 15.2141 14.1133 14.2176C14.2413 14.0736 14.309 13.8859 14.3024 13.6933C14.2957 13.5007 14.2152 13.3181 14.0775 13.1834C13.9398 13.0486 13.7555 12.9719 13.5629 12.9694C13.3702 12.9668 13.184 13.0384 13.0427 13.1695ZM12.0508 22.2079C12.0245 22.113 11.9797 22.0242 11.919 21.9466C11.8584 21.869 11.783 21.8041 11.6973 21.7556C11.6115 21.7071 11.5171 21.6759 11.4193 21.664C11.3215 21.652 11.2223 21.6594 11.1274 21.6857C11.0325 21.7121 10.9437 21.7569 10.8661 21.8175C10.7884 21.8782 10.7235 21.9535 10.6751 22.0393C10.6266 22.125 10.5954 22.2195 10.5835 22.3173C10.5715 22.4151 10.5789 22.5142 10.6052 22.6092C11.048 24.1988 11.8867 25.6503 13.0427 26.8279C13.1822 26.9698 13.3723 27.0504 13.5713 27.0521C13.7702 27.0537 13.9616 26.9763 14.1035 26.8368C14.2453 26.6973 14.326 26.5072 14.3276 26.3083C14.3293 26.1093 14.2519 25.9179 14.1124 25.776C13.1349 24.7798 12.4257 23.5523 12.0508 22.2079ZM22.0624 27.9895C20.7096 28.3388 19.2902 28.3388 17.9374 27.9895C17.8415 27.9631 17.7413 27.9561 17.6427 27.9689C17.544 27.9816 17.4489 28.0139 17.3629 28.0637C17.2768 28.1136 17.2015 28.18 17.1414 28.2593C17.0812 28.3385 17.0375 28.4289 17.0126 28.5252C16.9877 28.6215 16.9823 28.7218 16.9965 28.8202C17.0108 28.9186 17.0445 29.0132 17.0956 29.0985C17.1468 29.1838 17.2144 29.2581 17.2945 29.317C17.3747 29.3759 17.4657 29.4183 17.5624 29.4417C19.1612 29.854 20.8386 29.854 22.4374 29.4417C22.6273 29.3895 22.7891 29.2648 22.8878 29.0944C22.9865 28.924 23.0142 28.7216 22.965 28.5309C22.9157 28.3402 22.7935 28.1766 22.6246 28.0753C22.4557 27.974 22.2538 27.9432 22.0624 27.9895ZM28.8733 21.6876C28.7784 21.6612 28.6791 21.6539 28.5813 21.6659C28.4834 21.678 28.3889 21.7092 28.3032 21.7577C28.2174 21.8063 28.1421 21.8713 28.0814 21.9491C28.0208 22.0268 27.9761 22.1157 27.9499 22.2107C27.576 23.5562 26.8663 24.7847 25.8874 25.7807C25.8184 25.851 25.7639 25.9342 25.7271 26.0256C25.6902 26.1169 25.6717 26.2146 25.6726 26.3132C25.6735 26.4117 25.6938 26.509 25.7324 26.5997C25.7709 26.6903 25.8269 26.7725 25.8972 26.8415C25.9675 26.9105 26.0507 26.965 26.1421 27.0018C26.2334 27.0387 26.3312 27.0572 26.4297 27.0563C26.5282 27.0554 26.6255 27.0351 26.7162 26.9965C26.8068 26.958 26.889 26.902 26.958 26.8317C28.1145 25.6544 28.9531 24.2028 29.3955 22.6129C29.4222 22.5179 29.4298 22.4185 29.418 22.3205C29.4061 22.2225 29.375 22.1278 29.3265 22.0418C29.278 21.9559 29.213 21.8803 29.1352 21.8195C29.0575 21.7588 28.9685 21.7139 28.8733 21.6876ZM27.949 17.7932C27.9753 17.8881 28.0201 17.9769 28.0808 18.0546C28.1414 18.1322 28.2168 18.1971 28.3025 18.2456C28.3883 18.2941 28.4827 18.3252 28.5805 18.3372C28.6783 18.3491 28.7775 18.3418 28.8724 18.3154C28.9673 18.2891 29.0561 18.2443 29.1337 18.1836C29.2113 18.1229 29.2763 18.0476 29.3247 17.9618C29.3732 17.8761 29.4044 17.7816 29.4163 17.6839C29.4283 17.5861 29.4209 17.4869 29.3946 17.392C28.9522 15.8021 28.1135 14.3505 26.9571 13.1732C26.888 13.103 26.8058 13.047 26.7151 13.0086C26.6244 12.9701 26.527 12.9499 26.4285 12.9491C26.33 12.9482 26.2323 12.9668 26.141 13.0038C26.0497 13.0407 25.9665 13.0952 25.8963 13.1643C25.8261 13.2334 25.7701 13.3156 25.7317 13.4063C25.6932 13.497 25.673 13.5944 25.6722 13.6929C25.6713 13.7914 25.6899 13.8891 25.7268 13.9804C25.7638 14.0717 25.8183 14.1549 25.8874 14.2251C26.8652 15.2207 27.5745 16.448 27.949 17.7923V17.7932Z" fill="#888888"/>
</svg>
