<svg width="20" height="16" viewBox="0 0 20 16" fill="none" xmlns="http://www.w3.org/2000/svg">
<path d="M19.3457 7.92969C19.3457 8.28125 19.2188 8.58073 18.9648 8.82812L12.5488 15.2246C12.2949 15.4785 12.0117 15.6055 11.6992 15.6055C11.3411 15.6055 11.0514 15.4948 10.8301 15.2734C10.6087 15.0521 10.498 14.7786 10.498 14.4531C10.498 14.2708 10.5306 14.1081 10.5957 13.9648C10.6673 13.8216 10.7585 13.6947 10.8691 13.584L13.0566 11.377L16.5234 8.21289L16.9727 8.94531L13.418 9.15039H1.89453C1.52344 9.15039 1.22396 9.03971 0.996094 8.81836C0.768229 8.59049 0.654297 8.29427 0.654297 7.92969C0.654297 7.57161 0.768229 7.2819 0.996094 7.06055C1.22396 6.83268 1.52344 6.71875 1.89453 6.71875H13.418L16.9727 6.91406L16.5234 7.66602L13.0566 4.48242L10.8691 2.27539C10.7585 2.16471 10.6673 2.03776 10.5957 1.89453C10.5306 1.74479 10.498 1.58203 10.498 1.40625C10.498 1.08073 10.6087 0.807292 10.8301 0.585938C11.0514 0.364583 11.3411 0.253906 11.6992 0.253906C11.849 0.253906 11.9954 0.286458 12.1387 0.351562C12.2884 0.410156 12.4316 0.507812 12.5684 0.644531L18.9648 7.03125C19.2188 7.27865 19.3457 7.57812 19.3457 7.92969Z" fill="white"/>
</svg>
