<svg width="39" height="36" viewBox="0 0 39 36" fill="none" xmlns="http://www.w3.org/2000/svg">
<g filter="url(#filter0_dd_1151_11574)">
<path d="M29.74 26.3275C29.8302 26.4244 29.9002 26.5381 29.9461 26.6623C29.9919 26.7864 30.0127 26.9184 30.0072 27.0506C30.0017 27.1828 29.97 27.3126 29.9139 27.4325C29.8578 27.5524 29.7785 27.6599 29.6806 27.7489C29.5827 27.8379 29.4681 27.9066 29.3434 27.951C29.2187 27.9953 29.0865 28.0145 28.9543 28.0074C28.8222 28.0003 28.6928 27.9671 28.5736 27.9096C28.4544 27.8521 28.3478 27.7715 28.26 27.6725L23 21.8862V27.9612C23.003 28.1403 22.9596 28.3171 22.874 28.4744C22.7883 28.6317 22.6633 28.7641 22.5112 28.8587C22.3384 28.9615 22.1386 29.0098 21.9379 28.9974C21.7373 28.9849 21.545 28.9122 21.3862 28.7887L13.1925 22.4137C13.1329 22.3673 13.0847 22.308 13.0514 22.2402C13.018 22.1725 13.0005 22.098 13 22.0225V10.8862L8.26 5.6725C8.16983 5.57564 8.09979 5.46185 8.05392 5.33772C8.00806 5.21359 7.98728 5.0816 7.99281 4.94938C7.99833 4.81717 8.03004 4.68736 8.0861 4.56749C8.14216 4.44762 8.22146 4.34007 8.31939 4.25107C8.41732 4.16207 8.53194 4.0934 8.65661 4.04902C8.78128 4.00465 8.91352 3.98546 9.04566 3.99257C9.1778 3.99968 9.30721 4.03294 9.4264 4.09044C9.54559 4.14793 9.65218 4.22851 9.74 4.3275L29.74 26.3275ZM26.3388 19.395C26.5375 19.5705 26.7978 19.6599 27.0625 19.6435C27.3271 19.627 27.5744 19.5062 27.75 19.3075C28.5543 18.3944 28.9981 17.2193 28.9981 16.0025C28.9981 14.7857 28.5543 13.6106 27.75 12.6975C27.6647 12.594 27.5595 12.5088 27.4406 12.4468C27.3217 12.3848 27.1916 12.3474 27.0579 12.3367C26.9243 12.326 26.7898 12.3423 26.6626 12.3847C26.5354 12.427 26.418 12.4945 26.3174 12.5831C26.2167 12.6717 26.135 12.7797 26.0769 12.9006C26.0189 13.0214 25.9857 13.1527 25.9794 13.2867C25.9731 13.4206 25.9939 13.5544 26.0403 13.6802C26.0868 13.806 26.1581 13.9211 26.25 14.0187C26.7323 14.5665 26.9984 15.2714 26.9984 16.0012C26.9984 16.7311 26.7323 17.436 26.25 17.9837C26.0747 18.1827 25.9855 18.4431 26.0021 18.7078C26.0188 18.9724 26.1399 19.2196 26.3388 19.395ZM31.4538 9.33375C31.3677 9.2309 31.2618 9.14641 31.1425 9.0853C31.0231 9.02419 30.8927 8.98772 30.7589 8.97804C30.6252 8.96837 30.4909 8.98569 30.364 9.02898C30.237 9.07227 30.1201 9.14064 30.0202 9.23003C29.9202 9.31942 29.8393 9.428 29.7821 9.54931C29.725 9.67062 29.6928 9.80219 29.6876 9.93618C29.6823 10.0702 29.704 10.2039 29.7515 10.3293C29.7989 10.4547 29.8711 10.5693 29.9638 10.6662C31.2759 12.133 32.0013 14.032 32.0013 16C32.0013 17.968 31.2759 19.867 29.9638 21.3337C29.8711 21.4307 29.7989 21.5453 29.7515 21.6707C29.704 21.7961 29.6823 21.9298 29.6876 22.0638C29.6928 22.1978 29.725 22.3294 29.7821 22.4507C29.8393 22.572 29.9202 22.6806 30.0202 22.77C30.1201 22.8594 30.237 22.9277 30.364 22.971C30.4909 23.0143 30.6252 23.0316 30.7589 23.022C30.8927 23.0123 31.0231 22.9758 31.1425 22.9147C31.2618 22.8536 31.3677 22.7691 31.4538 22.6662C33.0934 20.8329 33.9998 18.4596 33.9998 16C33.9998 13.5404 33.0934 11.1671 31.4538 9.33375ZM22.125 14.9837C22.1926 15.0604 22.282 15.1145 22.3812 15.1387C22.4804 15.163 22.5847 15.1563 22.68 15.1196C22.7753 15.0828 22.857 15.0178 22.9143 14.9331C22.9715 14.8485 23.0014 14.7484 23 14.6462V4.03125C23.0023 3.87966 22.9713 3.72942 22.9091 3.59117C22.8469 3.45291 22.755 3.33004 22.64 3.23125C22.4649 3.08639 22.2457 3.00547 22.0185 3.00184C21.7913 2.9982 21.5696 3.07206 21.39 3.21125L15.9788 7.41625C15.9244 7.45858 15.8793 7.5117 15.8464 7.57227C15.8136 7.63284 15.7936 7.69955 15.7877 7.76822C15.7818 7.83688 15.7902 7.90602 15.8123 7.97129C15.8345 8.03656 15.8698 8.09655 15.9163 8.1475L22.125 14.9837ZM10.5 10H7C6.46957 10 5.96086 10.2107 5.58579 10.5858C5.21071 10.9609 5 11.4696 5 12V20C5 20.5304 5.21071 21.0391 5.58579 21.4142C5.96086 21.7893 6.46957 22 7 22H10.5C10.6326 22 10.7598 21.9473 10.8536 21.8536C10.9473 21.7598 11 21.6326 11 21.5V10.5C11 10.3674 10.9473 10.2402 10.8536 10.1464C10.7598 10.0527 10.6326 10 10.5 10Z" fill="white"/>
</g>
<defs>
<filter id="filter0_dd_1151_11574" x="-2" y="-3" width="42" height="42" filterUnits="userSpaceOnUse" color-interpolation-filters="sRGB">
<feFlood flood-opacity="0" result="BackgroundImageFix"/>
<feColorMatrix in="SourceAlpha" type="matrix" values="0 0 0 0 0 0 0 0 0 0 0 0 0 0 0 0 0 0 127 0" result="hardAlpha"/>
<feOffset dy="2"/>
<feGaussianBlur stdDeviation="2.5"/>
<feComposite in2="hardAlpha" operator="out"/>
<feColorMatrix type="matrix" values="0 0 0 0 0.403922 0 0 0 0 0.431373 0 0 0 0 0.462745 0 0 0 0.08 0"/>
<feBlend mode="normal" in2="BackgroundImageFix" result="effect1_dropShadow_1151_11574"/>
<feColorMatrix in="SourceAlpha" type="matrix" values="0 0 0 0 0 0 0 0 0 0 0 0 0 0 0 0 0 0 127 0" result="hardAlpha"/>
<feOffset dy="1"/>
<feGaussianBlur stdDeviation="0.5"/>
<feComposite in2="hardAlpha" operator="out"/>
<feColorMatrix type="matrix" values="0 0 0 0 0 0 0 0 0 0 0 0 0 0 0 0 0 0 0.12 0"/>
<feBlend mode="normal" in2="effect1_dropShadow_1151_11574" result="effect2_dropShadow_1151_11574"/>
<feBlend mode="normal" in="SourceGraphic" in2="effect2_dropShadow_1151_11574" result="shape"/>
</filter>
</defs>
</svg>
