<svg width="39" height="36" viewBox="0 0 39 36" fill="none" xmlns="http://www.w3.org/2000/svg">
<g filter="url(#filter0_dd_4735_6116)">
<path d="M23 4.03125V27.9612C23.003 28.1403 22.9596 28.3171 22.874 28.4744C22.7883 28.6317 22.6633 28.7641 22.5112 28.8587C22.3384 28.9615 22.1386 29.0098 21.9379 28.9974C21.7373 28.9849 21.545 28.9122 21.3862 28.7887L13.19 22.4137C13.1306 22.3668 13.0826 22.307 13.0497 22.2387C13.0168 22.1705 12.9998 22.0957 13 22.02V9.98C13.0002 9.90395 13.0178 9.82896 13.0514 9.76073C13.0849 9.6925 13.1336 9.63283 13.1938 9.58625L21.39 3.21125C21.5696 3.07206 21.7913 2.9982 22.0185 3.00184C22.2457 3.00547 22.4649 3.08639 22.64 3.23125C22.755 3.33004 22.8469 3.45291 22.9091 3.59117C22.9713 3.72942 23.0023 3.87966 23 4.03125ZM10.5 10H7C6.46957 10 5.96086 10.2107 5.58579 10.5858C5.21071 10.9609 5 11.4696 5 12V20C5 20.5304 5.21071 21.0391 5.58579 21.4142C5.96086 21.7893 6.46957 22 7 22H10.5C10.6326 22 10.7598 21.9473 10.8536 21.8536C10.9473 21.7598 11 21.6326 11 21.5V10.5C11 10.3674 10.9473 10.2402 10.8536 10.1464C10.7598 10.0527 10.6326 10 10.5 10ZM26.3463 12.605C26.2475 12.6918 26.1668 12.7972 26.1089 12.9152C26.0509 13.0331 26.0167 13.1614 26.0084 13.2926C26 13.4238 26.0176 13.5553 26.0601 13.6797C26.1027 13.8041 26.1693 13.9189 26.2563 14.0175C26.7386 14.5653 27.0047 15.2701 27.0047 16C27.0047 16.7299 26.7386 17.4347 26.2563 17.9825C26.167 18.0806 26.0981 18.1955 26.0536 18.3205C26.0092 18.4454 25.9901 18.578 25.9973 18.7105C26.0046 18.8429 26.0382 18.9726 26.0961 19.0919C26.1539 19.2113 26.235 19.3179 26.3345 19.4057C26.434 19.4934 26.5499 19.5604 26.6756 19.6029C26.8013 19.6454 26.9341 19.6624 27.0665 19.6531C27.1988 19.6437 27.3279 19.6081 27.4463 19.5483C27.5648 19.4886 27.6701 19.4059 27.7563 19.305C28.5606 18.3919 29.0043 17.2168 29.0043 16C29.0043 14.7832 28.5606 13.6081 27.7563 12.695C27.6695 12.5961 27.564 12.5152 27.4459 12.4572C27.3278 12.3991 27.1994 12.3649 27.0681 12.3565C26.9367 12.3481 26.805 12.3658 26.6805 12.4084C26.556 12.4511 26.4411 12.5179 26.3425 12.605H26.3463ZM31.4575 9.33375C31.3715 9.2309 31.2656 9.14641 31.1462 9.0853C31.0269 9.02419 30.8964 8.98772 30.7627 8.97804C30.6289 8.96837 30.4946 8.98569 30.3677 9.02898C30.2408 9.07227 30.1239 9.14064 30.0239 9.23003C29.924 9.31942 29.843 9.428 29.7859 9.54931C29.7287 9.67062 29.6966 9.80219 29.6913 9.93618C29.686 10.0702 29.7078 10.2039 29.7552 10.3293C29.8027 10.4547 29.8749 10.5693 29.9675 10.6662C31.2796 12.133 32.005 14.032 32.005 16C32.005 17.968 31.2796 19.867 29.9675 21.3337C29.8749 21.4307 29.8027 21.5453 29.7552 21.6707C29.7078 21.7961 29.686 21.9298 29.6913 22.0638C29.6966 22.1978 29.7287 22.3294 29.7859 22.4507C29.843 22.572 29.924 22.6806 30.0239 22.77C30.1239 22.8594 30.2408 22.9277 30.3677 22.971C30.4946 23.0143 30.6289 23.0316 30.7627 23.022C30.8964 23.0123 31.0269 22.9758 31.1462 22.9147C31.2656 22.8536 31.3715 22.7691 31.4575 22.6662C33.0971 20.8329 34.0036 18.4596 34.0036 16C34.0036 13.5404 33.0971 11.1671 31.4575 9.33375Z" fill="white"/>
</g>
<defs>
<filter id="filter0_dd_4735_6116" x="-2" y="-3" width="42" height="42" filterUnits="userSpaceOnUse" color-interpolation-filters="sRGB">
<feFlood flood-opacity="0" result="BackgroundImageFix"/>
<feColorMatrix in="SourceAlpha" type="matrix" values="0 0 0 0 0 0 0 0 0 0 0 0 0 0 0 0 0 0 127 0" result="hardAlpha"/>
<feOffset dy="2"/>
<feGaussianBlur stdDeviation="2.5"/>
<feComposite in2="hardAlpha" operator="out"/>
<feColorMatrix type="matrix" values="0 0 0 0 0.403922 0 0 0 0 0.431373 0 0 0 0 0.462745 0 0 0 0.08 0"/>
<feBlend mode="normal" in2="BackgroundImageFix" result="effect1_dropShadow_4735_6116"/>
<feColorMatrix in="SourceAlpha" type="matrix" values="0 0 0 0 0 0 0 0 0 0 0 0 0 0 0 0 0 0 127 0" result="hardAlpha"/>
<feOffset dy="1"/>
<feGaussianBlur stdDeviation="0.5"/>
<feComposite in2="hardAlpha" operator="out"/>
<feColorMatrix type="matrix" values="0 0 0 0 0 0 0 0 0 0 0 0 0 0 0 0 0 0 0.12 0"/>
<feBlend mode="normal" in2="effect1_dropShadow_4735_6116" result="effect2_dropShadow_4735_6116"/>
<feBlend mode="normal" in="SourceGraphic" in2="effect2_dropShadow_4735_6116" result="shape"/>
</filter>
</defs>
</svg>
